# xmcd
#
# Track frame offsets: 
#        150
#        17234
#        39122
#        75919
#        90645
#        108959
#        143101
#        160429
#        179374
#        199732
#        220304
#        259491
#        277544
#        294055
#        308459
#        327965
#        342861
#
# Disc length: 4787 seconds
#
# Revision: 0
# Processed by: cddbd v1.5.2PL0 Copyright (c) Steve Scherf et al.
# Submitted via: ExactAudioCopy v1.3
#
DISCID=de12b111
DTITLE=Various Artist - Akella Presents - vol. 145 - Rockin' Blues  C
DTITLE=D2
DYEAR=2018
DGENRE=Blues
TTITLE0=Tom McGuinness - Long Hard Road
TTITLE1=Tinsley Ellis - Sound Of A Broken Man
TTITLE2=Mark May - Blue Monday
TTITLE3=Victor Wainwright - Boom Town
TTITLE4=Mark Selby - Change A Comin'
TTITLE5=Robert Charles - Every Mother's Son
TTITLE6=Sterling Koch - Shape I'm In
TTITLE7=George Thorogood - Born Lover
TTITLE8=Tijerina - Born Under a Bad Sign
TTITLE9=Albert Cummings - No Doubt
TTITLE10=Harlis Sweetwater Band - Orange Blossom
TTITLE11=Trampled Under Foot - She's Long, She's Tall, She's Gone
TTITLE12=Bobby Messano - Too Good To Be True
TTITLE13=Johnny V - Let The Door Hit You
TTITLE14=Bishop Black - The Man
TTITLE15=Bjorn Berge - They Haven't Seen The Last Of Me
TTITLE16=Da JuJu Boys - Checkin' On My Baby
EXTD=
EXTT0=
EXTT1=
EXTT2=
EXTT3=
EXTT4=
EXTT5=
EXTT6=
EXTT7=
EXTT8=
EXTT9=
EXTT10=
EXTT11=
EXTT12=
EXTT13=
EXTT14=
EXTT15=
EXTT16=
PLAYORDER=
